<svg xmlns="http://www.w3.org/2000/svg" xmlns:xlink="http://www.w3.org/1999/xlink" width="500" zoomAndPan="magnify" viewBox="0 0 375 374.999991" height="500" preserveAspectRatio="xMidYMid meet" version="1.0"><defs><clipPath id="0fbea10c00"><path d="M 137.34375 25.941406 L 237.894531 25.941406 L 237.894531 54.097656 L 137.34375 54.097656 Z M 137.34375 25.941406 " clip-rule="nonzero"/></clipPath><clipPath id="26691c2011"><path d="M 328.09375 143.761719 L 356.246094 143.761719 L 356.246094 244.316406 L 328.09375 244.316406 Z M 328.09375 143.761719 " clip-rule="nonzero"/></clipPath><clipPath id="b22468351b"><path d="M 38.894531 44.277344 L 336.53125 44.277344 L 336.53125 311.746094 L 38.894531 311.746094 Z M 38.894531 44.277344 " clip-rule="nonzero"/></clipPath><clipPath id="c25aa54b03"><path d="M 252 52 L 332 52 L 332 132 L 252 132 Z M 252 52 " clip-rule="nonzero"/></clipPath><clipPath id="f759e05a64"><path d="M 272.136719 40.199219 L 343.238281 111.300781 L 323.332031 131.210938 L 252.230469 60.109375 Z M 272.136719 40.199219 " clip-rule="nonzero"/></clipPath><clipPath id="a24e0d30fb"><path d="M 272.136719 40.199219 L 343.238281 111.300781 L 323.332031 131.210938 L 252.230469 60.109375 Z M 272.136719 40.199219 " clip-rule="nonzero"/></clipPath><clipPath id="efa354ed2b"><path d="M 43 258 L 123 258 L 123 338 L 43 338 Z M 43 258 " clip-rule="nonzero"/></clipPath><clipPath id="d276c71681"><path d="M 103.101562 349.054688 L 32 277.953125 L 51.90625 258.046875 L 123.007812 329.148438 Z M 103.101562 349.054688 " clip-rule="nonzero"/></clipPath><clipPath id="5c8fbb6491"><path d="M 103.101562 349.054688 L 32 277.953125 L 51.90625 258.046875 L 123.007812 329.148438 Z M 103.101562 349.054688 " clip-rule="nonzero"/></clipPath><clipPath id="d1984d91fb"><path d="M 253 256 L 333 256 L 333 336 L 253 336 Z M 253 256 " clip-rule="nonzero"/></clipPath><clipPath id="33ed05951f"><path d="M 344.023438 276.546875 L 272.921875 347.648438 L 253.015625 327.738281 L 324.117188 256.636719 Z M 344.023438 276.546875 " clip-rule="nonzero"/></clipPath><clipPath id="db7c8ccd06"><path d="M 344.023438 276.546875 L 272.921875 347.648438 L 253.015625 327.738281 L 324.117188 256.636719 Z M 344.023438 276.546875 " clip-rule="nonzero"/></clipPath><clipPath id="f1cc72d4a6"><path d="M 18.753906 143.453125 L 46.90625 143.453125 L 46.90625 244 L 18.753906 244 Z M 18.753906 143.453125 " clip-rule="nonzero"/></clipPath><clipPath id="1f39d54324"><path d="M 43 52 L 123 52 L 123 132 L 43 132 Z M 43 52 " clip-rule="nonzero"/></clipPath><clipPath id="b5f4e933f1"><path d="M 32 111.300781 L 103.101562 40.199219 L 123.007812 60.109375 L 51.90625 131.210938 Z M 32 111.300781 " clip-rule="nonzero"/></clipPath><clipPath id="ead8673800"><path d="M 32 111.300781 L 103.101562 40.199219 L 123.007812 60.109375 L 51.90625 131.210938 Z M 32 111.300781 " clip-rule="nonzero"/></clipPath><clipPath id="6da35fd3db"><path d="M 37.855469 44.277344 L 337.503906 44.277344 L 337.503906 343.921875 L 37.855469 343.921875 Z M 37.855469 44.277344 " clip-rule="nonzero"/></clipPath></defs><g clip-path="url(#0fbea10c00)"><path fill="#c3dfaf" d="M 154.050781 25.941406 L 137.523438 54.097656 L 237.714844 54.097656 L 221.1875 25.941406 Z M 154.050781 25.941406 " fill-opacity="1" fill-rule="nonzero"/></g><g clip-path="url(#26691c2011)"><path fill="#c3dfaf" d="M 356.246094 160.46875 L 328.09375 143.941406 L 328.09375 244.132812 L 356.246094 227.605469 Z M 356.246094 160.46875 " fill-opacity="1" fill-rule="nonzero"/></g><g clip-path="url(#b22468351b)"><path fill="#568446" d="M 187.714844 107.8125 C 211.242188 107.8125 232.542969 117.34375 247.964844 132.746094 C 263.382812 148.148438 272.921875 169.429688 272.921875 192.933594 C 272.921875 216.4375 263.382812 237.714844 247.964844 253.121094 C 237.410156 263.65625 224.109375 271.445312 209.21875 275.3125 L 209.21875 260.40625 C 220.140625 256.9375 229.914062 250.894531 237.824219 242.992188 C 250.648438 230.179688 258.582031 212.480469 258.582031 192.933594 C 258.582031 173.382812 250.648438 155.683594 237.824219 142.871094 C 225 130.0625 207.28125 122.136719 187.714844 122.136719 C 168.144531 122.136719 150.425781 130.0625 137.601562 142.871094 C 124.777344 155.683594 116.84375 173.382812 116.84375 192.933594 C 116.84375 212.480469 124.777344 230.179688 137.601562 242.992188 C 148.839844 254.21875 163.835938 261.691406 180.542969 263.367188 L 180.542969 247.40625 C 172.886719 245.945312 166.027344 242.179688 160.710938 236.875 C 153.789062 229.957031 149.488281 220.410156 149.488281 209.898438 L 149.488281 175.964844 C 149.488281 165.453125 153.789062 155.90625 160.710938 148.988281 C 167.636719 142.074219 177.195312 137.78125 187.714844 137.78125 C 198.234375 137.78125 207.789062 142.074219 214.714844 148.988281 C 221.640625 155.90625 225.9375 165.453125 225.9375 175.964844 L 225.9375 209.898438 C 225.9375 220.410156 221.640625 229.957031 214.714844 236.875 C 209.398438 242.179688 202.539062 245.945312 194.882812 247.40625 L 194.882812 297.421875 L 212.109375 297.421875 C 216.070312 297.421875 219.28125 300.628906 219.28125 304.585938 C 219.28125 308.539062 216.070312 311.746094 212.109375 311.746094 L 163.320312 311.746094 C 159.359375 311.746094 156.152344 308.539062 156.152344 304.585938 C 156.152344 300.628906 159.359375 297.421875 163.320312 297.421875 L 180.542969 297.421875 L 180.542969 277.75 C 159.875 276.03125 141.300781 266.941406 127.464844 253.121094 C 112.042969 237.714844 102.503906 216.4375 102.503906 192.933594 C 102.503906 169.429688 112.042969 148.148438 127.464844 132.746094 C 142.882812 117.34375 164.183594 107.8125 187.714844 107.8125 Z M 257.453125 272.726562 C 254.652344 269.929688 254.652344 265.398438 257.453125 262.597656 C 260.253906 259.800781 264.792969 259.800781 267.59375 262.597656 L 292.9375 287.921875 C 295.734375 290.714844 295.734375 295.25 292.9375 298.046875 C 290.136719 300.839844 285.597656 300.839844 282.800781 298.046875 Z M 293.507812 200.09375 C 289.546875 200.09375 286.335938 196.886719 286.335938 192.933594 C 286.335938 188.976562 289.546875 185.769531 293.507812 185.769531 L 329.351562 185.769531 C 333.3125 185.769531 336.523438 188.976562 336.523438 192.933594 C 336.523438 196.886719 333.3125 200.09375 329.351562 200.09375 Z M 267.59375 123.265625 C 264.792969 126.0625 260.253906 126.0625 257.453125 123.265625 C 254.652344 120.464844 254.652344 115.933594 257.453125 113.136719 L 282.800781 87.820312 C 285.597656 85.023438 290.136719 85.023438 292.9375 87.820312 C 295.734375 90.613281 295.734375 95.152344 292.9375 97.945312 Z M 107.832031 262.597656 C 110.632812 259.800781 115.171875 259.800781 117.972656 262.597656 C 120.773438 265.398438 120.773438 269.929688 117.972656 272.726562 L 92.625 298.046875 C 89.828125 300.839844 85.289062 300.839844 82.492188 298.046875 C 79.691406 295.25 79.691406 290.714844 82.492188 287.921875 Z M 81.917969 185.769531 C 85.878906 185.769531 89.089844 188.976562 89.089844 192.933594 C 89.089844 196.886719 85.878906 200.09375 81.917969 200.09375 L 46.074219 200.09375 C 42.113281 200.09375 38.902344 196.886719 38.902344 192.933594 C 38.902344 188.976562 42.113281 185.769531 46.074219 185.769531 Z M 117.972656 113.136719 C 120.773438 115.933594 120.773438 120.464844 117.972656 123.265625 C 115.171875 126.0625 110.632812 126.0625 107.832031 123.265625 L 82.492188 97.945312 C 79.691406 95.152344 79.691406 90.613281 82.492188 87.820312 C 85.289062 85.023438 89.828125 85.023438 92.625 87.820312 Z M 194.882812 87.246094 C 194.882812 91.203125 191.671875 94.410156 187.714844 94.410156 C 183.753906 94.410156 180.542969 91.203125 180.542969 87.246094 L 180.542969 51.441406 C 180.542969 47.484375 183.753906 44.277344 187.714844 44.277344 C 191.671875 44.277344 194.882812 47.484375 194.882812 51.441406 Z M 193.589844 171.421875 L 211.160156 171.421875 C 210.230469 166.675781 207.882812 162.417969 204.578125 159.117188 C 200.242188 154.789062 194.273438 152.101562 187.714844 152.101562 C 181.152344 152.101562 175.183594 154.789062 170.847656 159.117188 C 166.515625 163.445312 163.828125 169.410156 163.828125 175.964844 L 163.828125 209.898438 C 163.828125 216.453125 166.515625 222.421875 170.847656 226.746094 C 175.183594 231.074219 181.152344 233.761719 187.714844 233.761719 C 194.273438 233.761719 200.242188 231.074219 204.578125 226.746094 C 207.882812 223.445312 210.230469 219.1875 211.160156 214.441406 L 193.589844 214.441406 C 191.007812 214.441406 188.898438 212.335938 188.898438 209.757812 C 188.898438 207.183594 191.007812 205.078125 193.589844 205.078125 L 211.597656 205.078125 L 211.597656 197.613281 L 193.589844 197.613281 C 191.007812 197.613281 188.898438 195.507812 188.898438 192.933594 C 188.898438 190.355469 191.007812 188.25 193.589844 188.25 L 211.597656 188.25 L 211.597656 180.792969 L 193.589844 180.792969 C 191.007812 180.792969 188.898438 178.683594 188.898438 176.109375 L 188.898438 176.105469 C 188.898438 173.527344 191.007812 171.421875 193.589844 171.421875 Z M 193.589844 171.421875 " fill-opacity="1" fill-rule="evenodd"/></g><g clip-path="url(#c25aa54b03)"><g clip-path="url(#f759e05a64)"><g clip-path="url(#a24e0d30fb)"><path fill="#c3dfaf" d="M 283.953125 52.015625 L 252.359375 60.238281 L 323.203125 131.082031 L 331.425781 99.488281 Z M 283.953125 52.015625 " fill-opacity="1" fill-rule="nonzero"/></g></g></g><g clip-path="url(#efa354ed2b)"><g clip-path="url(#d276c71681)"><g clip-path="url(#5c8fbb6491)"><path fill="#c3dfaf" d="M 91.285156 337.242188 L 122.882812 329.019531 L 52.035156 258.171875 L 43.8125 289.769531 Z M 91.285156 337.242188 " fill-opacity="1" fill-rule="nonzero"/></g></g></g><g clip-path="url(#d1984d91fb)"><g clip-path="url(#33ed05951f)"><g clip-path="url(#db7c8ccd06)"><path fill="#c3dfaf" d="M 332.210938 288.359375 L 323.988281 256.765625 L 253.144531 327.613281 L 284.738281 335.832031 Z M 332.210938 288.359375 " fill-opacity="1" fill-rule="nonzero"/></g></g></g><g clip-path="url(#f1cc72d4a6)"><path fill="#c3dfaf" d="M 18.753906 227.296875 L 46.90625 243.824219 L 46.90625 143.632812 L 18.753906 160.160156 Z M 18.753906 227.296875 " fill-opacity="1" fill-rule="nonzero"/></g><g clip-path="url(#1f39d54324)"><g clip-path="url(#b5f4e933f1)"><g clip-path="url(#ead8673800)"><path fill="#c3dfaf" d="M 43.8125 99.488281 L 52.035156 131.082031 L 122.882812 60.238281 L 91.285156 52.015625 Z M 43.8125 99.488281 " fill-opacity="1" fill-rule="nonzero"/></g></g></g><g clip-path="url(#6da35fd3db)"><path fill="#89c468" d="M 187.679688 343.921875 C 104.90625 343.921875 37.855469 276.410156 37.855469 194.101562 C 37.855469 111.789062 104.90625 44.277344 187.679688 44.277344 C 270.453125 44.277344 337.503906 111.328125 337.503906 194.101562 C 337.503906 276.871094 269.988281 343.921875 187.679688 343.921875 Z M 187.679688 53.527344 C 109.992188 53.527344 47.105469 116.414062 47.105469 194.101562 C 47.105469 271.785156 109.992188 334.675781 187.679688 334.675781 C 265.363281 334.675781 328.253906 271.785156 328.253906 194.101562 C 328.253906 116.414062 264.902344 53.527344 187.679688 53.527344 Z M 187.679688 53.527344 " fill-opacity="1" fill-rule="nonzero"/></g></svg>